<svg width="185" height="32" viewBox="0 0 185 32" fill="none" xmlns="http://www.w3.org/2000/svg">
<path d="M43.9036 9.39545H41.9316V12.4554H43.9036V20.1394C43.9036 24.4914 45.1956 27.3814 49.5136 27.3814C50.6696 27.3814 51.3156 27.2454 51.3156 27.2454V24.0494C51.3156 24.0494 50.9076 24.0834 50.6016 24.0834C48.6296 24.0834 47.5756 23.4714 47.5756 20.7174V12.4554H51.1796V9.39545H47.5756V5.68945H43.9036V9.39545Z" fill="#2C2D30"/>
<path d="M61.9386 8.95255C59.5586 8.95255 57.7566 10.3125 56.9746 11.7065V2.56055H53.2686V27.1425H56.9746V16.4325C56.9746 14.0185 58.5386 12.2845 60.8846 12.2845C62.9246 12.2845 64.4546 13.7125 64.4546 16.1605V27.1425H68.1266V16.4665C68.1266 12.5905 66.5286 8.95255 61.9386 8.95255Z" fill="#2C2D30"/>
<path d="M79.4725 8.95312C76.9565 8.95312 75.0866 10.4151 74.4066 12.1831V9.39512H70.7686V27.1431H74.4746V19.4931C74.4746 15.6511 75.5965 12.6931 79.4725 12.6931V8.95312Z" fill="#2C2D30"/>
<path d="M80.5059 18.3371C80.5059 23.7091 84.1779 27.5851 89.7199 27.5851C93.9359 27.5851 96.2819 25.1711 97.1319 23.7091L94.6839 21.8731C94.0039 22.8591 92.4739 24.3551 89.7879 24.3551C86.6259 24.3551 84.3479 22.3151 84.2799 19.1531H97.6419C97.6759 18.8471 97.6759 18.5411 97.6759 18.2351C97.6759 12.6591 94.5139 8.95312 89.1419 8.95312C84.2799 8.95312 80.5059 12.8291 80.5059 18.3371ZM84.4159 16.6031C84.6539 13.8151 86.6259 12.0471 89.1759 12.0471C91.7259 12.0471 93.7659 13.6791 93.9019 16.6031H84.4159Z" fill="#2C2D30"/>
<path d="M99.5977 18.3371C99.5977 23.7091 103.269 27.5851 108.811 27.5851C113.027 27.5851 115.373 25.1711 116.223 23.7091L113.775 21.8731C113.095 22.8591 111.565 24.3551 108.879 24.3551C105.717 24.3551 103.439 22.3151 103.371 19.1531H116.733C116.767 18.8471 116.767 18.5411 116.767 18.2351C116.767 12.6591 113.605 8.95312 108.233 8.95312C103.371 8.95312 99.5977 12.8291 99.5977 18.3371ZM103.507 16.6031C103.745 13.8151 105.717 12.0471 108.267 12.0471C110.817 12.0471 112.857 13.6791 112.993 16.6031H103.507Z" fill="#2C2D30"/>
<path d="M131.779 18.2685C131.779 20.6485 130.385 22.6205 127.937 22.6205C125.659 22.6205 124.095 20.9205 124.095 18.2685C124.095 15.6505 125.625 13.8485 127.937 13.8485C130.181 13.8485 131.779 15.4465 131.779 18.2685ZM131.983 27.1425H137.287V2.56055H131.609V10.6525C131.235 10.2105 129.569 8.85055 126.849 8.85055C121.681 8.85055 118.417 12.6925 118.417 18.2345C118.417 23.7085 122.021 27.5845 127.155 27.5845C129.773 27.5845 131.473 26.3265 131.983 25.7485V27.1425Z" fill="#2C2D30"/>
<path d="M138.613 18.2696C138.613 23.6416 142.625 27.5856 148.303 27.5856C153.947 27.5856 158.095 23.5736 158.095 18.2016C158.095 12.7956 154.049 8.85156 148.303 8.85156C142.795 8.85156 138.613 12.8636 138.613 18.2696ZM144.291 18.2696C144.291 15.6516 145.957 13.8496 148.303 13.8496C150.615 13.8496 152.417 15.5836 152.417 18.2016C152.417 20.7516 150.649 22.5876 148.303 22.5876C145.991 22.5876 144.291 20.8536 144.291 18.2696Z" fill="#2C2D30"/>
<path d="M165.583 5.51953H159.905V9.29353H158.171V13.8835H159.905V20.1735C159.905 25.4775 162.353 27.4155 166.569 27.4155C167.997 27.4155 168.745 27.2115 168.745 27.2115V22.3495C168.371 22.3835 168.099 22.3835 167.793 22.3835C166.637 22.3835 165.583 22.0095 165.583 20.4455V13.8835H168.609V9.29353H165.583V5.51953Z" fill="#2C2D30"/>
<path d="M177.094 27.5856C181.174 27.5856 184.37 25.3416 184.37 21.7036C184.37 15.2436 176.142 16.5356 176.142 14.2916C176.142 13.7476 176.618 13.4076 177.434 13.4076C178.828 13.4076 179.848 14.2576 180.392 14.8016L184.064 11.9116C183.01 10.4836 181.072 8.85156 177.672 8.85156C173.796 8.85156 170.804 10.9256 170.804 14.3596C170.804 20.8536 178.964 19.9696 178.964 22.0096C178.964 22.6556 178.454 22.9956 177.366 22.9956C175.564 22.9956 174.374 22.2816 173.422 21.4316L170.226 24.5256C171.28 25.9536 173.694 27.5856 177.094 27.5856Z" fill="#2C2D30"/>
<mask id="mask0" style="mask-type:alpha" maskUnits="userSpaceOnUse" x="0" y="0" width="32" height="32">
<path d="M16 32C24.8366 32 32 24.8366 32 16C32 7.16344 24.8366 0 16 0C7.16344 0 0 7.16344 0 16C0 24.8366 7.16344 32 16 32Z" fill="#C4C4C4"/>
</mask>
<g mask="url(#mask0)">
<path d="M-0.857422 32.5723C11.2928 32.5723 21.1426 22.7225 21.1426 10.5723C21.1426 -1.578 11.2928 -11.4277 -0.857422 -11.4277C-13.0077 -11.4277 -22.8574 -1.578 -22.8574 10.5723C-22.8574 22.7225 -13.0077 32.5723 -0.857422 32.5723Z" fill="#2C2D30"/>
<path d="M35.857 15.4288C44.299 15.4288 51.1427 8.58518 51.1427 0.143122C51.1427 -8.29894 44.299 -15.1426 35.857 -15.1426C27.4149 -15.1426 20.5713 -8.29894 20.5713 0.143122C20.5713 8.58518 27.4149 15.4288 35.857 15.4288Z" fill="#2C2D30"/>
<path d="M30.7143 45.4286C38.8408 45.4286 45.4286 38.8408 45.4286 30.7143C45.4286 22.5878 38.8408 16 30.7143 16C22.5878 16 16 22.5878 16 30.7143C16 38.8408 22.5878 45.4286 30.7143 45.4286Z" fill="#2C2D30"/>
</g>
</svg>
